/* XPM */
static char * stick_xpm[] = {
"25 25 4 1",
" 	c None",
".	c #262729",
"+	c #252628",
"@	c #6C9EAB",
".........................",
".........................",
".........................",
".........................",
".....+++++++++++++++.....",
".....+++++++++++++++.....",
".....+++++++++++++++.....",
".....+++++++++++++++.....",
".....+++++++++++++++.....",
".....+++++++++++++++.....",
".....+++++++@+++++++.....",
".....++++++@+@++++++.....",
".....+++++@+++@+++++.....",
".....++++++@+@++++++.....",
".....+++++++@+++++++.....",
".....+++++++++++++++.....",
".....+++++++++++++++.....",
".....+++++++++++++++.....",
".....+++++++++++++++.....",
".........................",
".........................",
".........................",
".........................",
".........................",
"........................."};
